<svg width="25" height="25" viewBox="0 0 25 25" fill="none" xmlns="http://www.w3.org/2000/svg">
<g clip-path="url(#clip0_2619_2125)">
<path d="M13.9381 6.04381C13.9381 6.28943 13.9381 7.09001 13.9381 8.22739H17.8486L17.4246 11.7133H13.9381C13.9381 17.0893 13.9381 24.2934 13.9381 24.2934H9.31032C9.31032 24.2934 9.31032 17.1847 9.31032 11.7133H6.89893V8.22739H9.31032C9.31032 6.84495 9.31032 5.86193 9.31032 5.58823C9.31032 4.28417 9.21207 3.66542 9.76618 2.65489C10.3206 1.6444 11.8843 0.308746 14.589 0.340902C17.2943 0.37423 18.4346 0.63448 18.4346 0.63448L17.8486 4.34965C17.8486 4.34965 16.1211 3.89351 15.2732 4.05607C14.4264 4.21868 13.9381 4.74031 13.9381 6.04381Z" fill="white"/>
</g>
<defs>
<clipPath id="clip0_2619_2125">
<rect width="24" height="24" fill="white" transform="translate(0.666748 0.316895)"/>
</clipPath>
</defs>
</svg>
