<svg width="24" height="25" viewBox="0 0 24 25" fill="none" xmlns="http://www.w3.org/2000/svg">
<path d="M12 22.3169C9.85576 22.3169 8.31273 22.3158 7.1097 22.1992C5.92045 22.0839 5.1597 21.8623 4.55258 21.4808C3.85868 21.0449 3.27192 20.4582 2.83591 19.7643C2.45455 19.1572 2.23288 18.3964 2.11773 17.2072C2.00106 16.0042 2 14.4611 2 12.3169C2 10.1727 2.00106 8.62962 2.11773 7.42659C2.23288 6.23735 2.45455 5.47659 2.83591 4.86947C3.2719 4.17555 3.85866 3.5888 4.55258 3.1528C5.1597 2.77144 5.92045 2.54977 7.1097 2.43462C8.31258 2.31796 9.85561 2.31689 12 2.31689C14.1442 2.31689 15.6873 2.31796 16.8903 2.43462C18.0795 2.54977 18.8403 2.77144 19.4474 3.1528C20.1413 3.58882 20.728 4.17557 21.1639 4.86947C21.5455 5.47659 21.767 6.23735 21.8823 7.42659C21.9989 8.62962 22 10.1727 22 12.3169C22 14.4611 21.9989 16.0042 21.8823 17.2072C21.767 18.3964 21.5455 19.1572 21.1639 19.7643C20.728 20.4582 20.1413 21.0449 19.4474 21.4808C18.8403 21.8623 18.0795 22.0839 16.8903 22.1992C15.6873 22.3158 14.1442 22.3169 12 22.3169Z" fill="white" stroke="white" stroke-width="2"/>
<path d="M12 17.3169C14.2091 17.3169 16 15.526 16 13.3169C16 11.1078 14.2091 9.31689 12 9.31689C9.79086 9.31689 8 11.1078 8 13.3169C8 15.526 9.79086 17.3169 12 17.3169Z" fill="white" stroke="black" stroke-width="2"/>
<path d="M16.875 8.56689C17.4963 8.56689 18 8.06321 18 7.44189C18 6.82057 17.4963 6.31689 16.875 6.31689C16.2537 6.31689 15.75 6.82057 15.75 7.44189C15.75 8.06321 16.2537 8.56689 16.875 8.56689Z" fill="black"/>
</svg>
