<svg width="25" height="25" viewBox="0 0 25 25" fill="none" xmlns="http://www.w3.org/2000/svg">
<path d="M18.1586 5.3539C17.1695 4.20406 16.6514 2.71846 16.6926 1.20598L12.9969 1.1167C12.9969 1.1167 12.9969 1.27438 12.9969 1.48702V16.3073C13.0485 20.9959 5.64064 20.8821 6.22672 15.6996C6.58504 13.6389 8.79928 12.3708 10.7668 13.0877V9.31678C6.48328 8.57086 2.42392 11.9803 2.46664 16.3238C2.84104 25.7438 16.3521 25.745 16.727 16.3238C16.6326 15.9866 16.6854 9.70918 16.672 9.17974C18.3525 10.2254 20.3078 10.7481 22.288 10.6812V6.7867C20.4573 6.7867 19.0602 6.29998 18.1586 5.3539Z" fill="white"/>
</svg>
